<svg height="512" viewBox="0 0 64 64" width="512" xmlns="http://www.w3.org/2000/svg"><g id="Doctor-Medical_care-Healthcare-VDOcall-Conference-Notebook" data-name="Doctor-Medical care-Healthcare-VDOcall-Conference-Notebook"><path d="m58.23 61h-52.46a2 2 0 0 1 -1.89-2.63l4.66-14a2.009 2.009 0 0 1 1.9-1.37h43.12a2.009 2.009 0 0 1 1.9 1.37l4.66 14a2 2 0 0 1 -1.89 2.63z" fill="#bddbff"/><path d="m39.15 28.83a1.994 1.994 0 0 0 -1.99-1.83h-1.03a2 2 0 0 0 -1.71.97l-2.42 4.03-2.42-4.03a2 2 0 0 0 -1.71-.97h-1.03a1.994 1.994 0 0 0 -1.99 1.83l-.85 10.17h16z" fill="#bddbff"/><path d="m23 7v8l-4-3v1a2.006 2.006 0 0 1 -2 2h-8a2.006 2.006 0 0 1 -2-2v-4a2.006 2.006 0 0 1 2-2h8a2.006 2.006 0 0 1 2 2v1z" fill="#bddbff"/><g fill="#57a4ff"><path d="m25 2h-20a3.009 3.009 0 0 0 -3 3v12a3.009 3.009 0 0 0 3 3h8.59l3.7 3.71a1.007 1.007 0 0 0 .71.29.838.838 0 0 0 .38-.08.987.987 0 0 0 .62-.92v-3h6a3.009 3.009 0 0 0 3-3v-12a3.009 3.009 0 0 0 -3-3zm1 15a1 1 0 0 1 -1 1h-7a1 1 0 0 0 -1 1v1.59l-2.29-2.3a1.033 1.033 0 0 0 -.71-.29h-9a1 1 0 0 1 -1-1v-12a1 1 0 0 1 1-1h20a1 1 0 0 1 1 1z"/><path d="m52 2a10 10 0 1 0 10 10 10.016 10.016 0 0 0 -10-10zm0 18a8 8 0 1 1 8-8 8.011 8.011 0 0 1 -8 8z"/><path d="m38 56h-12a1 1 0 0 0 0 2h12a1 1 0 0 0 0-2z"/><path d="m30.986 14h8.014a1 1 0 0 0 0-2h-8.014a1 1 0 0 0 0 2z"/><path d="m61.07 58.05-4.67-14a2.99 2.99 0 0 0 -.93-1.35 3.029 3.029 0 0 0 .53-1.7v-16a1 1 0 0 0 -2 0v16a1 1 0 0 1 -1 1h-42a1 1 0 0 1 -1-1v-17.98a1 1 0 1 0 -2 0v17.98a3.029 3.029 0 0 0 .53 1.7 2.99 2.99 0 0 0 -.93 1.35l-4.67 14a3 3 0 0 0 2.84 3.95h52.46a3 3 0 0 0 2.84-3.95zm-2.03 1.53a.983.983 0 0 1 -.81.42h-52.46a.983.983 0 0 1 -.81-.42.963.963 0 0 1 -.13-.9l4.66-14a1 1 0 0 1 .95-.68h43.12a1 1 0 0 1 .95.68l4.66 14a.963.963 0 0 1 -.13.9z"/><path d="m28 22a4 4 0 0 0 8 0v-2a4 4 0 0 0 -8 0zm2-2a2 2 0 0 1 4 0v2a2 2 0 0 1 -4 0z"/><path d="m40.15 28.75a3.019 3.019 0 0 0 -2.99-2.75h-1.03a3.009 3.009 0 0 0 -2.57 1.46l-1.56 2.6-1.56-2.6a3.009 3.009 0 0 0 -2.57-1.46h-1.03a3.019 3.019 0 0 0 -2.99 2.75l-.85 10.17a1.013 1.013 0 0 0 .26.76 1.029 1.029 0 0 0 .74.32h16a1.029 1.029 0 0 0 .74-.32 1.013 1.013 0 0 0 .26-.76zm-15.06 9.25.75-9.08a1.01 1.01 0 0 1 1-.92h1.03a1.012 1.012 0 0 1 .86.49l2.41 4.02a1.037 1.037 0 0 0 1.72 0l2.41-4.02a1.012 1.012 0 0 1 .86-.49h1.03a1.01 1.01 0 0 1 1 .92l.75 9.08z"/><path d="m23.45 6.11a1 1 0 0 0 -1.05.09l-2.55 1.91a2.992 2.992 0 0 0 -2.85-2.11h-8a3.009 3.009 0 0 0 -3 3v4a3.009 3.009 0 0 0 3 3h8a2.992 2.992 0 0 0 2.85-2.11l2.55 1.91a.99.99 0 0 0 1.05.09.988.988 0 0 0 .55-.89v-8a.988.988 0 0 0 -.55-.89zm-5.45 6.89a1 1 0 0 1 -1 1h-8a1 1 0 0 1 -1-1v-4a1 1 0 0 1 1-1h8a1 1 0 0 1 1 1zm4 0-2-1.5v-1l2-1.5z"/><path d="m58 12a1 1 0 0 1 -1 1h-4v4a1 1 0 0 1 -2 0v-4h-4a1 1 0 0 1 0-2h4v-4a1 1 0 0 1 2 0v4h4a1 1 0 0 1 1 1z"/></g></g></svg>